<!DOCTYPE svg PUBLIC "-//W3C//DTD SVG 1.1//EN" "http://www.w3.org/Graphics/SVG/1.1/DTD/svg11.dtd">
<!-- Uploaded to: SVG Repo, www.svgrepo.com, Transformed by: SVG Repo Mixer Tools -->
<svg fill="#000000" width="64px" height="64px" viewBox="0 0 56.00 56.00" xmlns="http://www.w3.org/2000/svg" stroke="#000000" stroke-width="0.00056">
<g id="SVGRepo_bgCarrier" stroke-width="0" transform="translate(5.040000000000003,5.040000000000003), scale(0.82)">
<rect x="0" y="0" width="56.00" height="56.00" rx="28" fill="#ffffff" strokewidth="0"/>
</g>
<g id="SVGRepo_tracerCarrier" stroke-linecap="round" stroke-linejoin="round"/>
<g id="SVGRepo_iconCarrier">
<path d="M 27.9999 51.9062 C 41.0546 51.9062 51.9063 41.0547 51.9063 28.0000 C 51.9063 14.9219 41.0312 4.0938 27.9765 4.0938 C 14.8983 4.0938 4.0937 14.9219 4.0937 28.0000 C 4.0937 41.0547 14.9218 51.9062 27.9999 51.9062 Z M 36.9765 21.5781 L 34.2812 18.8828 L 35.9452 17.2422 C 36.6952 16.5156 37.5390 16.4453 38.2187 17.125 L 38.7343 17.6406 C 39.4140 18.3203 39.3436 19.1406 38.6171 19.9140 Z M 20.6874 37.7969 L 17.5702 38.9687 C 17.0546 39.1562 16.5155 38.6875 16.7499 38.125 L 18.0390 35.1016 L 32.9218 20.2422 L 35.6171 22.9140 Z"/>
</g>
</svg>